<svg version="1.1" xmlns="http://www.w3.org/2000/svg" xmlns:xlink="http://www.w3.org/1999/xlink" viewBox="0 0 172 172"><g fill="none" fill-rule="nonzero" stroke="none" stroke-width="1" stroke-linecap="butt" stroke-linejoin="miter" stroke-miterlimit="10" stroke-dasharray="" stroke-dashoffset="0" font-family="none" font-weight="none" font-size="none" text-anchor="none" style="mix-blend-mode: normal"><path d="M0,172v-172h172v172z" fill="none"></path><g fill="#cccccc"><path d="M39.69231,0c-3.65342,0.00037 -6.61502,2.96196 -6.61538,6.61538v26.46154h-26.46154c-3.65342,0.00037 -6.61502,2.96196 -6.61538,6.61538v125.69231c0.00037,3.65342 2.96196,6.61502 6.61538,6.61538h125.69231c3.65342,-0.00037 6.61502,-2.96196 6.61538,-6.61538v-26.46154h26.46154c3.65342,-0.00037 6.61502,-2.96196 6.61538,-6.61538v-125.69231c-0.00037,-3.65342 -2.96196,-6.61502 -6.61538,-6.61538zM46.30769,13.23077h112.46154v112.46154h-19.84615v-86c-0.00037,-3.65342 -2.96196,-6.61502 -6.61538,-6.61538h-86zM13.23077,46.30769h112.46154v112.46154h-112.46154z"></path></g></g></svg>